ffmpeg started on 2026-03-22 at 17:27:21
Report written to "D:\Convert\FFMetrics\reports\psnr_report-6.txt"
Log level: 32
Command line:
ffmpeg -hide_banner -nostdin -r 24000/1001 -i "F:\\Convert\\files\\[DC] Make Heroine ga Oosugiru - 07_Telegram_HEVC(237).mkv" -r 24000/1001 -i "F:\\Convert\\files\\[DC] Make Heroine ga Oosugiru - 07_Telegram.mp4" -lavfi "[0:v]settb=AVTB,setpts=PTS-STARTPTS,format=pix_fmts=yuv420p10le,fps=24000/1001,scale=1920:1080:flags=lanczos:param0=3:out_range=limited:out_color_matrix=bt709:out_chroma_loc=left,setsar=1/1,setdar=(1920/1080)*(1/1),colorspace=format=yuv420p10:range=tv:primaries=bt709:trc=bt709:space=bt709:fast=0[main];[1:v]settb=AVTB,setpts=PTS-STARTPTS,format=pix_fmts=yuv420p,fps=24000/1001,scale=1920:1080:flags=lanczos:param0=3:out_range=limited:out_color_matrix=bt709:out_chroma_loc=left,setsar=1.000,setdar=1.778,colorspace=format=yuv420p:range=tv:primaries=bt709:trc=bt709:space=bt709:fast=0[ref];[main][ref]psnr=eof_action=endall:stats_file='D\\:/Convert/FFMetrics/logs/psnr_logfile-6.txt'" -f null -
Input #0, matroska,webm, from 'F:\Convert\files\[DC] Make Heroine ga Oosugiru - 07_Telegram_HEVC(237).mkv':
  Metadata:
    COMPATIBLE_BRANDS: isomiso2avc1mp41
    MAJOR_BRAND     : isom
    MINOR_VERSION   : 512
    ENCODER         : Lavf61.7.100
  Duration: 00:24:06.79, start: -0.021000, bitrate: 981 kb/s
  Stream #0:0: Video: hevc (Main 10), yuv420p10le(tv, bt709, progressive), 1920x1080 [SAR 1:1 DAR 16:9], 23.98 fps, 23.98 tbr, 1k tbn (default)
      Metadata:
        HANDLER_NAME    : VideoHandler
        VENDOR_ID       : [0][0][0][0]
        ENCODER         : Lavc61.19.100 libx265
        BPS             : 784028
        DURATION        : 00:24:06.569708333
        NUMBER_OF_FRAMES: 34683
        NUMBER_OF_BYTES : 141768899
        _STATISTICS_WRITING_APP: mkvpropedit v94.0 ('Initiate') 64-bit
        _STATISTICS_WRITING_DATE_UTC: 2026-03-21 14:31:19
        _STATISTICS_TAGS: BPS DURATION NUMBER_OF_FRAMES NUMBER_OF_BYTES
  Stream #0:1: Audio: aac (LC), 48000 Hz, stereo, fltp (default)
      Metadata:
        HANDLER_NAME    : SoundHandler
        VENDOR_ID       : [0][0][0][0]
        ENCODER         : Lavc61.19.100 aac
        BPS             : 193194
        DURATION        : 00:24:06.784000000
        NUMBER_OF_FRAMES: 67819
        NUMBER_OF_BYTES : 34938755
        _STATISTICS_WRITING_APP: mkvpropedit v94.0 ('Initiate') 64-bit
        _STATISTICS_WRITING_DATE_UTC: 2026-03-21 14:31:19
        _STATISTICS_TAGS: BPS DURATION NUMBER_OF_FRAMES NUMBER_OF_BYTES
Input #1, mov,mp4,m4a,3gp,3g2,mj2, from 'F:\Convert\files\[DC] Make Heroine ga Oosugiru - 07_Telegram.mp4':
  Metadata:
    major_brand     : isom
    minor_version   : 512
    compatible_brands: isomiso2avc1mp41
    encoder         : Lavf60.16.100
  Duration: 00:24:06.74, start: 0.000000, bitrate: 3764 kb/s
  Stream #1:0[0x1](und): Video: h264 (High) (avc1 / 0x31637661), yuv420p(tv, bt709, progressive), 1920x1080 [SAR 1:1 DAR 16:9], 3616 kb/s, 23.98 fps, 23.98 tbr, 24k tbn (default)
      Metadata:
        handler_name    : VideoHandler
        vendor_id       : [0][0][0][0]
        encoder         : Lavc60.31.102 h264_qsv
  Stream #1:1[0x2](und): Audio: aac (HE-AACv2) (mp4a / 0x6134706D), 48000 Hz, stereo, fltp, 144 kb/s (default)
      Metadata:
        handler_name    : SoundHandler
        vendor_id       : [0][0][0][0]
Stream mapping:
  Stream #0:0 (hevc) -> settb:default
  Stream #1:0 (h264) -> settb:default
  psnr:default -> Stream #0:0 (wrapped_avframe)
  Stream #0:1 -> #0:1 (aac (native) -> pcm_s16le (native))
Output #0, null, to 'pipe:':
  Metadata:
    COMPATIBLE_BRANDS: isomiso2avc1mp41
    MAJOR_BRAND     : isom
    MINOR_VERSION   : 512
    encoder         : Lavf61.7.100
  Stream #0:0: Video: wrapped_avframe, yuv420p10le(tv, bt709, progressive), 1920x1080 [SAR 1:1 DAR 16:9], q=2-31, 200 kb/s, 23.98 fps, 23.98 tbn
      Metadata:
        encoder         : Lavc61.19.100 wrapped_avframe
  Stream #0:1: Audio: pcm_s16le, 48000 Hz, stereo, s16, 1536 kb/s (default)
      Metadata:
        HANDLER_NAME    : SoundHandler
        VENDOR_ID       : [0][0][0][0]
        _STATISTICS_TAGS: BPS DURATION NUMBER_OF_FRAMES NUMBER_OF_BYTES
        BPS             : 193194
        DURATION        : 00:24:06.784000000
        NUMBER_OF_FRAMES: 67819
        NUMBER_OF_BYTES : 34938755
        _STATISTICS_WRITING_APP: mkvpropedit v94.0 ('Initiate') 64-bit
        _STATISTICS_WRITING_DATE_UTC: 2026-03-21 14:31:19
        encoder         : Lavc61.19.100 pcm_s16le
frame=  136 fps=0.0 q=-0.0 size=N/A time=00:00:05.67 bitrate=N/A speed=11.1x    frame=  340 fps=327 q=-0.0 size=N/A time=00:00:14.18 bitrate=N/A speed=13.6x    frame=  536 fps=345 q=-0.0 size=N/A time=00:00:22.35 bitrate=N/A speed=14.4x    frame=  738 fps=357 q=-0.0 size=N/A time=00:00:30.78 bitrate=N/A speed=14.9x    frame=  915 fps=355 q=-0.0 size=N/A time=00:00:38.16 bitrate=N/A speed=14.8x    frame= 1070 fps=345 q=-0.0 size=N/A time=00:00:44.62 bitrate=N/A speed=14.4x    frame= 1232 fps=341 q=-0.0 size=N/A time=00:00:51.38 bitrate=N/A speed=14.2x    frame= 1394 fps=338 q=-0.0 size=N/A time=00:00:58.14 bitrate=N/A speed=14.1x    frame= 1542 fps=332 q=-0.0 size=N/A time=00:01:04.31 bitrate=N/A speed=13.9x    frame= 1693 fps=328 q=-0.0 size=N/A time=00:01:10.61 bitrate=N/A speed=13.7x    frame= 1866 fps=329 q=-0.0 size=N/A time=00:01:17.82 bitrate=N/A speed=13.7x    frame= 2034 fps=329 q=-0.0 size=N/A time=00:01:24.83 bitrate=N/A speed=13.7x    frame= 2143 fps=320 q=-0.0 size=N/A time=00:01:29.38 bitrate=N/A speed=13.3x    frame= 2305 fps=319 q=-0.0 size=N/A time=00:01:36.13 bitrate=N/A speed=13.3x    frame= 2448 fps=316 q=-0.0 size=N/A time=00:01:42.10 bitrate=N/A speed=13.2x    frame= 2582 fps=313 q=-0.0 size=N/A time=00:01:47.69 bitrate=N/A speed=  13x    frame= 2762 fps=315 q=-0.0 size=N/A time=00:01:55.19 bitrate=N/A speed=13.1x    frame= 2947 fps=317 q=-0.0 size=N/A time=00:02:02.91 bitrate=N/A speed=13.2x    frame= 3143 fps=321 q=-0.0 size=N/A time=00:02:11.08 bitrate=N/A speed=13.4x    frame= 3347 fps=324 q=-0.0 size=N/A time=00:02:19.59 bitrate=N/A speed=13.5x    frame= 3544 fps=327 q=-0.0 size=N/A time=00:02:27.81 bitrate=N/A speed=13.7x    frame= 3750 fps=330 q=-0.0 size=N/A time=00:02:36.40 bitrate=N/A speed=13.8x    frame= 3946 fps=333 q=-0.0 size=N/A time=00:02:44.58 bitrate=N/A speed=13.9x    frame= 4149 fps=335 q=-0.0 size=N/A time=00:02:53.04 bitrate=N/A speed=  14x    frame= 4347 fps=337 q=-0.0 size=N/A time=00:03:01.30 bitrate=N/A speed=14.1x    frame= 4552 fps=339 q=-0.0 size=N/A time=00:03:09.85 bitrate=N/A speed=14.2x    frame= 4755 fps=341 q=-0.0 size=N/A time=00:03:18.32 bitrate=N/A speed=14.2x    frame= 4955 fps=343 q=-0.0 size=N/A time=00:03:26.66 bitrate=N/A speed=14.3x    frame= 5162 fps=345 q=-0.0 size=N/A time=00:03:35.29 bitrate=N/A speed=14.4x    frame= 5359 fps=346 q=-0.0 size=N/A time=00:03:43.51 bitrate=N/A speed=14.4x    frame= 5558 fps=348 q=-0.0 size=N/A time=00:03:51.81 bitrate=N/A speed=14.5x    frame= 5759 fps=349 q=-0.0 size=N/A time=00:04:00.19 bitrate=N/A speed=14.6x    frame= 5967 fps=350 q=-0.0 size=N/A time=00:04:08.87 bitrate=N/A speed=14.6x    frame= 6162 fps=351 q=-0.0 size=N/A time=00:04:17.00 bitrate=N/A speed=14.7x    frame= 6364 fps=353 q=-0.0 size=N/A time=00:04:25.43 bitrate=N/A speed=14.7x    frame= 6564 fps=354 q=-0.0 size=N/A time=00:04:33.77 bitrate=N/A speed=14.8x    frame= 6770 fps=355 q=-0.0 size=N/A time=00:04:42.36 bitrate=N/A speed=14.8x    frame= 6973 fps=356 q=-0.0 size=N/A time=00:04:50.83 bitrate=N/A speed=14.8x    frame= 7165 fps=356 q=-0.0 size=N/A time=00:04:58.84 bitrate=N/A speed=14.9x    frame= 7361 fps=357 q=-0.0 size=N/A time=00:05:07.01 bitrate=N/A speed=14.9x    frame= 7559 fps=357 q=-0.0 size=N/A time=00:05:15.27 bitrate=N/A speed=14.9x    frame= 7748 fps=358 q=-0.0 size=N/A time=00:05:23.15 bitrate=N/A speed=14.9x    frame= 7946 fps=358 q=-0.0 size=N/A time=00:05:31.41 bitrate=N/A speed=14.9x    frame= 8145 fps=359 q=-0.0 size=N/A time=00:05:39.71 bitrate=N/A speed=  15x    frame= 8345 fps=360 q=-0.0 size=N/A time=00:05:48.05 bitrate=N/A speed=  15x    frame= 8544 fps=360 q=-0.0 size=N/A time=00:05:56.35 bitrate=N/A speed=  15x    frame= 8740 fps=361 q=-0.0 size=N/A time=00:06:04.53 bitrate=N/A speed=  15x    frame= 8944 fps=361 q=-0.0 size=N/A time=00:06:13.03 bitrate=N/A speed=15.1x    frame= 9144 fps=362 q=-0.0 size=N/A time=00:06:21.38 bitrate=N/A speed=15.1x    frame= 9343 fps=362 q=-0.0 size=N/A time=00:06:29.68 bitrate=N/A speed=15.1x    frame= 9540 fps=363 q=-0.0 size=N/A time=00:06:37.89 bitrate=N/A speed=15.1x    frame= 9737 fps=363 q=-0.0 size=N/A time=00:06:46.11 bitrate=N/A speed=15.1x    frame= 9948 fps=364 q=-0.0 size=N/A time=00:06:54.91 bitrate=N/A speed=15.2x    frame=10140 fps=364 q=-0.0 size=N/A time=00:07:02.92 bitrate=N/A speed=15.2x    frame=10339 fps=365 q=-0.0 size=N/A time=00:07:11.22 bitrate=N/A speed=15.2x    frame=10537 fps=365 q=-0.0 size=N/A time=00:07:19.48 bitrate=N/A speed=15.2x    frame=10742 fps=365 q=-0.0 size=N/A time=00:07:28.03 bitrate=N/A speed=15.2x    frame=10934 fps=366 q=-0.0 size=N/A time=00:07:36.03 bitrate=N/A speed=15.2x    frame=11126 fps=366 q=-0.0 size=N/A time=00:07:44.04 bitrate=N/A speed=15.3x    frame=11315 fps=366 q=-0.0 size=N/A time=00:07:51.92 bitrate=N/A speed=15.3x    frame=11520 fps=366 q=-0.0 size=N/A time=00:08:00.48 bitrate=N/A speed=15.3x    frame=11719 fps=367 q=-0.0 size=N/A time=00:08:08.77 bitrate=N/A speed=15.3x    frame=11917 fps=367 q=-0.0 size=N/A time=00:08:17.03 bitrate=N/A speed=15.3x    frame=12114 fps=367 q=-0.0 size=N/A time=00:08:25.25 bitrate=N/A speed=15.3x    frame=12320 fps=367 q=-0.0 size=N/A time=00:08:33.84 bitrate=N/A speed=15.3x    frame=12518 fps=368 q=-0.0 size=N/A time=00:08:42.10 bitrate=N/A speed=15.3x    frame=12715 fps=368 q=-0.0 size=N/A time=00:08:50.32 bitrate=N/A speed=15.4x    frame=12914 fps=368 q=-0.0 size=N/A time=00:08:58.62 bitrate=N/A speed=15.4x    frame=13116 fps=369 q=-0.0 size=N/A time=00:09:07.04 bitrate=N/A speed=15.4x    frame=13309 fps=369 q=-0.0 size=N/A time=00:09:15.09 bitrate=N/A speed=15.4x    frame=13511 fps=369 q=-0.0 size=N/A time=00:09:23.52 bitrate=N/A speed=15.4x    frame=13715 fps=369 q=-0.0 size=N/A time=00:09:32.02 bitrate=N/A speed=15.4x    frame=13909 fps=369 q=-0.0 size=N/A time=00:09:40.12 bitrate=N/A speed=15.4x    frame=14094 fps=369 q=-0.0 size=N/A time=00:09:47.83 bitrate=N/A speed=15.4x    frame=14295 fps=370 q=-0.0 size=N/A time=00:09:56.22 bitrate=N/A speed=15.4x    frame=14499 fps=370 q=-0.0 size=N/A time=00:10:04.72 bitrate=N/A speed=15.4x    frame=14694 fps=370 q=-0.0 size=N/A time=00:10:12.86 bitrate=N/A speed=15.4x    frame=14887 fps=370 q=-0.0 size=N/A time=00:10:20.91 bitrate=N/A speed=15.4x    frame=15084 fps=370 q=-0.0 size=N/A time=00:10:29.12 bitrate=N/A speed=15.4x    frame=15253 fps=370 q=-0.0 size=N/A time=00:10:36.17 bitrate=N/A speed=15.4x    frame=15448 fps=370 q=-0.0 size=N/A time=00:10:44.31 bitrate=N/A speed=15.4x    frame=15655 fps=370 q=-0.0 size=N/A time=00:10:52.94 bitrate=N/A speed=15.4x    frame=15856 fps=370 q=-0.0 size=N/A time=00:11:01.32 bitrate=N/A speed=15.4x    frame=16062 fps=371 q=-0.0 size=N/A time=00:11:09.91 bitrate=N/A speed=15.5x    frame=16260 fps=371 q=-0.0 size=N/A time=00:11:18.17 bitrate=N/A speed=15.5x    frame=16457 fps=371 q=-0.0 size=N/A time=00:11:26.39 bitrate=N/A speed=15.5x    frame=16660 fps=371 q=-0.0 size=N/A time=00:11:34.86 bitrate=N/A speed=15.5x    frame=16854 fps=371 q=-0.0 size=N/A time=00:11:42.95 bitrate=N/A speed=15.5x    frame=17054 fps=371 q=-0.0 size=N/A time=00:11:51.29 bitrate=N/A speed=15.5x    frame=17258 fps=372 q=-0.0 size=N/A time=00:11:59.80 bitrate=N/A speed=15.5x    frame=17460 fps=372 q=-0.0 size=N/A time=00:12:08.22 bitrate=N/A speed=15.5x    frame=17655 fps=372 q=-0.0 size=N/A time=00:12:16.36 bitrate=N/A speed=15.5x    frame=17850 fps=372 q=-0.0 size=N/A time=00:12:24.49 bitrate=N/A speed=15.5x    frame=18048 fps=372 q=-0.0 size=N/A time=00:12:32.75 bitrate=N/A speed=15.5x    frame=18240 fps=372 q=-0.0 size=N/A time=00:12:40.76 bitrate=N/A speed=15.5x    frame=18443 fps=372 q=-0.0 size=N/A time=00:12:49.22 bitrate=N/A speed=15.5x    frame=18642 fps=372 q=-0.0 size=N/A time=00:12:57.52 bitrate=N/A speed=15.5x    frame=18846 fps=373 q=-0.0 size=N/A time=00:13:06.03 bitrate=N/A speed=15.5x    frame=19043 fps=373 q=-0.0 size=N/A time=00:13:14.25 bitrate=N/A speed=15.6x    frame=19250 fps=373 q=-0.0 size=N/A time=00:13:22.88 bitrate=N/A speed=15.6x    frame=19454 fps=373 q=-0.0 size=N/A time=00:13:31.39 bitrate=N/A speed=15.6x    frame=19643 fps=373 q=-0.0 size=N/A time=00:13:39.27 bitrate=N/A speed=15.6x    frame=19850 fps=374 q=-0.0 size=N/A time=00:13:47.91 bitrate=N/A speed=15.6x    frame=20059 fps=374 q=-0.0 size=N/A time=00:13:56.62 bitrate=N/A speed=15.6x    frame=20257 fps=374 q=-0.0 size=N/A time=00:14:04.88 bitrate=N/A speed=15.6x    frame=20456 fps=374 q=-0.0 size=N/A time=00:14:13.18 bitrate=N/A speed=15.6x    frame=20635 fps=374 q=-0.0 size=N/A time=00:14:20.65 bitrate=N/A speed=15.6x    frame=20840 fps=374 q=-0.0 size=N/A time=00:14:29.20 bitrate=N/A speed=15.6x    frame=21044 fps=374 q=-0.0 size=N/A time=00:14:37.71 bitrate=N/A speed=15.6x    frame=21242 fps=374 q=-0.0 size=N/A time=00:14:45.96 bitrate=N/A speed=15.6x    frame=21447 fps=374 q=-0.0 size=N/A time=00:14:54.51 bitrate=N/A speed=15.6x    frame=21656 fps=375 q=-0.0 size=N/A time=00:15:03.23 bitrate=N/A speed=15.6x    frame=21856 fps=375 q=-0.0 size=N/A time=00:15:11.57 bitrate=N/A speed=15.6x    frame=22059 fps=375 q=-0.0 size=N/A time=00:15:20.04 bitrate=N/A speed=15.6x    frame=22261 fps=375 q=-0.0 size=N/A time=00:15:28.46 bitrate=N/A speed=15.6x    frame=22459 fps=375 q=-0.0 size=N/A time=00:15:36.72 bitrate=N/A speed=15.6x    frame=22664 fps=375 q=-0.0 size=N/A time=00:15:45.27 bitrate=N/A speed=15.7x    frame=22860 fps=375 q=-0.0 size=N/A time=00:15:53.45 bitrate=N/A speed=15.7x    frame=23056 fps=375 q=-0.0 size=N/A time=00:16:01.62 bitrate=N/A speed=15.7x    frame=23258 fps=376 q=-0.0 size=N/A time=00:16:10.05 bitrate=N/A speed=15.7x    frame=23467 fps=376 q=-0.0 size=N/A time=00:16:18.76 bitrate=N/A speed=15.7x    frame=23664 fps=376 q=-0.0 size=N/A time=00:16:26.98 bitrate=N/A speed=15.7x    frame=23864 fps=376 q=-0.0 size=N/A time=00:16:35.32 bitrate=N/A speed=15.7x    frame=24068 fps=376 q=-0.0 size=N/A time=00:16:43.83 bitrate=N/A speed=15.7x    frame=24258 fps=376 q=-0.0 size=N/A time=00:16:51.76 bitrate=N/A speed=15.7x    frame=24461 fps=376 q=-0.0 size=N/A time=00:17:00.22 bitrate=N/A speed=15.7x    frame=24671 fps=376 q=-0.0 size=N/A time=00:17:08.98 bitrate=N/A speed=15.7x    frame=24870 fps=377 q=-0.0 size=N/A time=00:17:17.28 bitrate=N/A speed=15.7x    frame=25072 fps=377 q=-0.0 size=N/A time=00:17:25.71 bitrate=N/A speed=15.7x    frame=25275 fps=377 q=-0.0 size=N/A time=00:17:34.17 bitrate=N/A speed=15.7x    frame=25477 fps=377 q=-0.0 size=N/A time=00:17:42.60 bitrate=N/A speed=15.7x    frame=25678 fps=377 q=-0.0 size=N/A time=00:17:50.98 bitrate=N/A speed=15.7x    frame=25874 fps=377 q=-0.0 size=N/A time=00:17:59.16 bitrate=N/A speed=15.7x    frame=26075 fps=377 q=-0.0 size=N/A time=00:18:07.54 bitrate=N/A speed=15.7x    frame=26280 fps=377 q=-0.0 size=N/A time=00:18:16.09 bitrate=N/A speed=15.7x    frame=26483 fps=377 q=-0.0 size=N/A time=00:18:24.56 bitrate=N/A speed=15.7x    frame=26678 fps=377 q=-0.0 size=N/A time=00:18:32.69 bitrate=N/A speed=15.7x    frame=26880 fps=378 q=-0.0 size=N/A time=00:18:41.12 bitrate=N/A speed=15.7x    frame=27073 fps=377 q=-0.0 size=N/A time=00:18:49.16 bitrate=N/A speed=15.7x    frame=27262 fps=377 q=-0.0 size=N/A time=00:18:57.05 bitrate=N/A speed=15.7x    frame=27453 fps=377 q=-0.0 size=N/A time=00:19:05.01 bitrate=N/A speed=15.7x    frame=27650 fps=377 q=-0.0 size=N/A time=00:19:13.23 bitrate=N/A speed=15.7x    frame=27854 fps=377 q=-0.0 size=N/A time=00:19:21.74 bitrate=N/A speed=15.7x    frame=28047 fps=377 q=-0.0 size=N/A time=00:19:29.79 bitrate=N/A speed=15.7x    frame=28245 fps=378 q=-0.0 size=N/A time=00:19:38.05 bitrate=N/A speed=15.7x    frame=28446 fps=378 q=-0.0 size=N/A time=00:19:46.43 bitrate=N/A speed=15.8x    frame=28652 fps=378 q=-0.0 size=N/A time=00:19:55.02 bitrate=N/A speed=15.8x    frame=28827 fps=377 q=-0.0 size=N/A time=00:20:02.32 bitrate=N/A speed=15.7x    frame=29002 fps=377 q=-0.0 size=N/A time=00:20:09.62 bitrate=N/A speed=15.7x    frame=29184 fps=377 q=-0.0 size=N/A time=00:20:17.21 bitrate=N/A speed=15.7x    frame=29381 fps=377 q=-0.0 size=N/A time=00:20:25.43 bitrate=N/A speed=15.7x    frame=29555 fps=377 q=-0.0 size=N/A time=00:20:32.68 bitrate=N/A speed=15.7x    frame=29731 fps=377 q=-0.0 size=N/A time=00:20:40.03 bitrate=N/A speed=15.7x    frame=29914 fps=377 q=-0.0 size=N/A time=00:20:47.66 bitrate=N/A speed=15.7x    frame=30089 fps=376 q=-0.0 size=N/A time=00:20:54.96 bitrate=N/A speed=15.7x    frame=30280 fps=376 q=-0.0 size=N/A time=00:21:02.92 bitrate=N/A speed=15.7x    frame=30477 fps=376 q=-0.0 size=N/A time=00:21:11.14 bitrate=N/A speed=15.7x    frame=30677 fps=376 q=-0.0 size=N/A time=00:21:19.48 bitrate=N/A speed=15.7x    frame=30872 fps=376 q=-0.0 size=N/A time=00:21:27.61 bitrate=N/A speed=15.7x    frame=31071 fps=376 q=-0.0 size=N/A time=00:21:35.91 bitrate=N/A speed=15.7x    frame=31272 fps=376 q=-0.0 size=N/A time=00:21:44.30 bitrate=N/A speed=15.7x    frame=31459 fps=376 q=-0.0 size=N/A time=00:21:52.10 bitrate=N/A speed=15.7x    frame=31661 fps=376 q=-0.0 size=N/A time=00:22:00.52 bitrate=N/A speed=15.7x    frame=31850 fps=376 q=-0.0 size=N/A time=00:22:08.41 bitrate=N/A speed=15.7x    frame=32038 fps=376 q=-0.0 size=N/A time=00:22:16.25 bitrate=N/A speed=15.7x    frame=32230 fps=376 q=-0.0 size=N/A time=00:22:24.25 bitrate=N/A speed=15.7x    frame=32431 fps=376 q=-0.0 size=N/A time=00:22:32.64 bitrate=N/A speed=15.7x    frame=32632 fps=376 q=-0.0 size=N/A time=00:22:41.02 bitrate=N/A speed=15.7x    frame=32778 fps=376 q=-0.0 size=N/A time=00:22:47.11 bitrate=N/A speed=15.7x    frame=32951 fps=376 q=-0.0 size=N/A time=00:22:54.33 bitrate=N/A speed=15.7x    frame=33142 fps=376 q=-0.0 size=N/A time=00:23:02.29 bitrate=N/A speed=15.7x    frame=33335 fps=376 q=-0.0 size=N/A time=00:23:10.34 bitrate=N/A speed=15.7x    frame=33497 fps=375 q=-0.0 size=N/A time=00:23:17.10 bitrate=N/A speed=15.7x    frame=33658 fps=375 q=-0.0 size=N/A time=00:23:23.81 bitrate=N/A speed=15.6x    frame=33799 fps=374 q=-0.0 size=N/A time=00:23:29.69 bitrate=N/A speed=15.6x    frame=33931 fps=374 q=-0.0 size=N/A time=00:23:35.20 bitrate=N/A speed=15.6x    frame=34099 fps=373 q=-0.0 size=N/A time=00:23:42.21 bitrate=N/A speed=15.6x    frame=34266 fps=373 q=-0.0 size=N/A time=00:23:49.17 bitrate=N/A speed=15.6x    frame=34396 fps=372 q=-0.0 size=N/A time=00:23:54.59 bitrate=N/A speed=15.5x    frame=34566 fps=372 q=-0.0 size=N/A time=00:24:01.69 bitrate=N/A speed=15.5x    [Parsed_psnr_16 @ 0000026351bfc740] PSNR y:48.974147 u:50.336954 v:50.388501 average:49.389534 min:38.016919 max:inf
[out#0/null @ 0000026342efe740] video:14903KiB audio:271276KiB subtitle:0KiB other streams:0KiB global headers:0KiB muxing overhead: unknown
frame=34683 fps=372 q=-0.0 Lsize=N/A time=00:24:06.57 bitrate=N/A speed=15.5x    
